<svg width="150" height="157" viewBox="0 0 150 157" fill="none" xmlns="http://www.w3.org/2000/svg">
<rect y="4" width="150" height="150" fill="white"/>
<mask id="path-2-outside-1_44_2" maskUnits="userSpaceOnUse" x="30" y="35" width="90" height="93" fill="black">
<rect fill="white" x="30" y="35" width="90" height="93"/>
<path d="M47.4375 35.375V35.625C47.3542 35.8333 47.2917 36.1458 47.25 36.5625C47.2083 36.9792 47.1875 37.3542 47.1875 37.6875C47.1875 38.9792 47.3542 40.4167 47.6875 42C48.0625 43.5417 48.75 45.4792 49.75 47.8125L77.4375 110.25L104.188 48.3125C104.812 46.7708 105.479 45.0833 106.188 43.25C106.896 41.4167 107.25 39.5625 107.25 37.6875C107.25 37.1875 107.208 36.7708 107.125 36.4375C107.042 36.0625 106.958 35.7917 106.875 35.625V35.375H119.688V35.625C118.896 36.4167 117.938 37.8333 116.812 39.875C115.688 41.9167 114.458 44.4375 113.125 47.4375L77.3125 126.938H72.3125L38.375 50.5C37.5833 48.7083 36.75 46.9792 35.875 45.3125C35.0417 43.6458 34.25 42.1458 33.5 40.8125C32.75 39.4375 32.0833 38.2917 31.5 37.375C30.9167 36.4583 30.5208 35.875 30.3125 35.625V35.375H47.4375Z"/>
</mask>
<path d="M47.4375 35.375V35.625C47.3542 35.8333 47.2917 36.1458 47.25 36.5625C47.2083 36.9792 47.1875 37.3542 47.1875 37.6875C47.1875 38.9792 47.3542 40.4167 47.6875 42C48.0625 43.5417 48.75 45.4792 49.75 47.8125L77.4375 110.25L104.188 48.3125C104.812 46.7708 105.479 45.0833 106.188 43.25C106.896 41.4167 107.25 39.5625 107.25 37.6875C107.25 37.1875 107.208 36.7708 107.125 36.4375C107.042 36.0625 106.958 35.7917 106.875 35.625V35.375H119.688V35.625C118.896 36.4167 117.938 37.8333 116.812 39.875C115.688 41.9167 114.458 44.4375 113.125 47.4375L77.3125 126.938H72.3125L38.375 50.5C37.5833 48.7083 36.75 46.9792 35.875 45.3125C35.0417 43.6458 34.25 42.1458 33.5 40.8125C32.75 39.4375 32.0833 38.2917 31.5 37.375C30.9167 36.4583 30.5208 35.875 30.3125 35.625V35.375H47.4375Z" fill="#012E33"/>
<path d="M47.4375 35.375H47.7375V35.075H47.4375V35.375ZM47.4375 35.625L47.716 35.7364L47.7375 35.6828V35.625H47.4375ZM47.6875 42L47.3938 42.0618L47.396 42.0709L47.6875 42ZM49.75 47.8125L49.4742 47.9307L49.4758 47.9341L49.75 47.8125ZM77.4375 110.25L77.1633 110.372L77.4411 110.998L77.7129 110.369L77.4375 110.25ZM104.188 48.3125L104.463 48.4315L104.466 48.4252L104.188 48.3125ZM107.125 36.4375L106.832 36.5026L106.834 36.5103L107.125 36.4375ZM106.875 35.625H106.575V35.6958L106.607 35.7592L106.875 35.625ZM106.875 35.375V35.075H106.575V35.375H106.875ZM119.688 35.375H119.988V35.075H119.688V35.375ZM119.688 35.625L119.9 35.8371L119.988 35.7493V35.625H119.688ZM113.125 47.4375L113.399 47.5607L113.399 47.5593L113.125 47.4375ZM77.3125 126.938V127.238H77.5064L77.586 127.061L77.3125 126.938ZM72.3125 126.938L72.0383 127.059L72.1175 127.238H72.3125V126.938ZM38.375 50.5L38.1006 50.6212L38.1008 50.6217L38.375 50.5ZM35.875 45.3125L35.6066 45.4467L35.6094 45.452L35.875 45.3125ZM33.5 40.8125L33.2366 40.9562L33.2385 40.9596L33.5 40.8125ZM30.3125 35.625H30.0125V35.7336L30.082 35.8171L30.3125 35.625ZM30.3125 35.375V35.075H30.0125V35.375H30.3125ZM47.1375 35.375V35.625H47.7375V35.375H47.1375ZM47.159 35.5136C47.0597 35.7616 46.994 36.1077 46.9515 36.5326L47.5485 36.5924C47.5894 36.1839 47.6486 35.905 47.716 35.7364L47.159 35.5136ZM46.9515 36.5326C46.9091 36.9568 46.8875 37.3421 46.8875 37.6875H47.4875C47.4875 37.3663 47.5076 37.0015 47.5485 36.5924L46.9515 36.5326ZM46.8875 37.6875C46.8875 39.0044 47.0573 40.463 47.3939 42.0618L47.9811 41.9382C47.651 40.3703 47.4875 38.954 47.4875 37.6875H46.8875ZM47.396 42.0709C47.7765 43.6354 48.4711 45.59 49.4743 47.9307L50.0257 47.6943C49.0289 45.3684 48.3485 43.448 47.979 41.9291L47.396 42.0709ZM49.4758 47.9341L77.1633 110.372L77.7117 110.128L50.0242 47.6909L49.4758 47.9341ZM77.7129 110.369L104.463 48.4314L103.912 48.1936L77.1621 110.131L77.7129 110.369ZM104.466 48.4252C105.091 46.8818 105.759 45.1927 106.467 43.3581L105.908 43.1419C105.2 44.9739 104.534 46.6599 103.909 48.1998L104.466 48.4252ZM106.467 43.3581C107.188 41.492 107.55 39.6012 107.55 37.6875H106.95C106.95 39.5238 106.603 41.3414 105.908 43.1419L106.467 43.3581ZM107.55 37.6875C107.55 37.173 107.507 36.73 107.416 36.3647L106.834 36.5103C106.909 36.8117 106.95 37.202 106.95 37.6875H107.55ZM107.418 36.3724C107.334 35.9932 107.244 35.6922 107.143 35.4908L106.607 35.7592C106.673 35.8912 106.75 36.1318 106.832 36.5026L107.418 36.3724ZM107.175 35.625V35.375H106.575V35.625H107.175ZM106.875 35.675H119.688V35.075H106.875V35.675ZM119.387 35.375V35.625H119.988V35.375H119.387ZM119.475 35.4129C118.652 36.2362 117.677 37.6845 116.55 39.7302L117.075 40.0198C118.198 37.9821 119.14 36.5971 119.9 35.8371L119.475 35.4129ZM116.55 39.7302C115.419 41.7817 114.186 44.3107 112.851 47.3157L113.399 47.5593C114.73 44.5643 115.956 42.0516 117.075 40.0198L116.55 39.7302ZM112.851 47.3143L77.039 126.814L77.586 127.061L113.399 47.5607L112.851 47.3143ZM77.3125 126.637H72.3125V127.238H77.3125V126.637ZM72.5867 126.816L38.6492 50.3783L38.1008 50.6217L72.0383 127.059L72.5867 126.816ZM38.6494 50.3788C37.8551 48.5812 37.0189 46.8459 36.1406 45.173L35.6094 45.452C36.4811 47.1124 37.3115 48.8355 38.1006 50.6212L38.6494 50.3788ZM36.1433 45.1783C35.3083 43.5082 34.5143 42.0038 33.7615 40.6654L33.2385 40.9596C33.9857 42.2879 34.7751 43.7835 35.6067 45.4467L36.1433 45.1783ZM33.7634 40.6688C33.0114 39.2903 32.3412 38.1382 31.7531 37.2139L31.2469 37.5361C31.8254 38.4452 32.4886 39.5847 33.2366 40.9562L33.7634 40.6688ZM31.7531 37.2139C31.1723 36.3013 30.766 35.7005 30.543 35.4329L30.082 35.8171C30.2757 36.0495 30.661 36.6154 31.2469 37.5361L31.7531 37.2139ZM30.6125 35.625V35.375H30.0125V35.625H30.6125ZM30.3125 35.675H47.4375V35.075H30.3125V35.675Z" fill="#012E33" mask="url(#path-2-outside-1_44_2)"/>
</svg>
