<svg width="1440" height="789" viewBox="0 0 1440 789" fill="none" xmlns="http://www.w3.org/2000/svg">
<rect width="1440" height="789" fill="#161622"/>
<g clip-path="url(#clip0_702_370)">
<path opacity="0.06" d="M292.5 494.289H442.146V549.093H505.171V494.289H543.838V441.464H505.171V237.319H422.66L292.5 442.377V494.289ZM443.364 441.464H358.874V439.028L440.928 309.173H443.364V441.464Z" fill="white" fill-opacity="0.9"/>
<path opacity="0.06" d="M718.575 555.944C796.975 555.944 844.32 496.268 844.472 393.51C844.624 291.514 796.671 233.056 718.575 233.056C640.327 233.056 592.83 291.362 592.678 393.51C592.373 495.964 640.022 555.792 718.575 555.944ZM718.575 501.292C682.8 501.292 659.66 465.365 659.813 393.51C659.965 322.722 682.952 287.099 718.575 287.099C754.045 287.099 777.185 322.722 777.185 393.51C777.337 465.365 754.198 501.292 718.575 501.292Z" fill="white" fill-opacity="0.9"/>
<path opacity="0.06" d="M895.329 494.289H1044.98V549.093H1108V494.289H1146.67V441.464H1108V237.319H1025.49L895.329 442.377V494.289ZM1046.19 441.464H961.703V439.028L1043.76 309.173H1046.19V441.464Z" fill="white" fill-opacity="0.9"/>
</g>
<defs>
<clipPath id="clip0_702_370">
<rect width="854.167" height="322.888" fill="white" transform="translate(292.5 233.056)"/>
</clipPath>
</defs>
</svg>
