<svg xmlns="http://www.w3.org/2000/svg" xmlns:xlink="http://www.w3.org/1999/xlink" width="301" zoomAndPan="magnify" viewBox="0 0 225.75 102.749999" height="137" preserveAspectRatio="xMidYMid meet" version="1.0"><defs><g/><clipPath id="cbbe11c7ad"><path d="M 152.21875 20.507812 L 225.304688 20.507812 L 225.304688 93.59375 L 152.21875 93.59375 Z M 152.21875 20.507812 " clip-rule="nonzero"/></clipPath><clipPath id="0e5e5c7b72"><path d="M 188.761719 20.507812 C 168.582031 20.507812 152.21875 36.867188 152.21875 57.050781 C 152.21875 77.234375 168.582031 93.59375 188.761719 93.59375 C 208.945312 93.59375 225.304688 77.234375 225.304688 57.050781 C 225.304688 36.867188 208.945312 20.507812 188.761719 20.507812 Z M 188.761719 20.507812 " clip-rule="nonzero"/></clipPath><clipPath id="4b16dd6177"><path d="M 214 14.410156 L 225.351562 14.410156 L 225.351562 42.839844 L 214 42.839844 Z M 214 14.410156 " clip-rule="nonzero"/></clipPath><clipPath id="813f5527cd"><path d="M 199.347656 15 L 225.351562 15 L 225.351562 42.839844 L 199.347656 42.839844 Z M 199.347656 15 " clip-rule="nonzero"/></clipPath></defs><g clip-path="url(#cbbe11c7ad)"><g clip-path="url(#0e5e5c7b72)"><path fill="#ffcc00" d="M 152.21875 20.507812 L 225.304688 20.507812 L 225.304688 93.59375 L 152.21875 93.59375 Z M 152.21875 20.507812 " fill-opacity="1" fill-rule="nonzero"/></g></g><g fill="#f1f1f1" fill-opacity="1"><g transform="translate(14.558751, 74.191884)"><g><path d="M 22.703125 0.734375 C 20.859375 0.734375 19.203125 0.425781 17.734375 -0.1875 C 16.273438 -0.800781 14.953125 -1.992188 13.765625 -3.765625 L 13.765625 0 L 3.390625 0 L 3.390625 -47.078125 L 13.765625 -47.078125 L 13.765625 -31.21875 C 14.953125 -32.988281 16.273438 -34.179688 17.734375 -34.796875 C 19.203125 -35.410156 20.859375 -35.71875 22.703125 -35.71875 C 25.710938 -35.71875 28.359375 -34.945312 30.640625 -33.40625 C 32.921875 -31.863281 34.707031 -29.722656 36 -26.984375 C 37.300781 -24.253906 37.953125 -21.101562 37.953125 -17.53125 C 37.953125 -13.945312 37.300781 -10.785156 36 -8.046875 C 34.707031 -5.316406 32.921875 -3.171875 30.640625 -1.609375 C 28.359375 -0.046875 25.710938 0.734375 22.703125 0.734375 Z M 19.8125 -8.078125 C 22.113281 -8.078125 23.960938 -8.960938 25.359375 -10.734375 C 26.753906 -12.503906 27.453125 -14.769531 27.453125 -17.53125 C 27.453125 -20.28125 26.753906 -22.53125 25.359375 -24.28125 C 23.960938 -26.03125 22.113281 -26.90625 19.8125 -26.90625 C 17.539062 -26.90625 15.695312 -26.039062 14.28125 -24.3125 C 12.863281 -22.582031 12.15625 -20.320312 12.15625 -17.53125 C 12.15625 -14.6875 12.863281 -12.398438 14.28125 -10.671875 C 15.695312 -8.941406 17.539062 -8.078125 19.8125 -8.078125 Z M 19.8125 -8.078125 "/></g></g></g><g fill="#f1f1f1" fill-opacity="1"><g transform="translate(54.605123, 74.191884)"><g><path d="M 18.203125 0 L 11.234375 0 C 8.679688 0 6.703125 -0.601562 5.296875 -1.8125 C 3.898438 -3.03125 3.203125 -4.75 3.203125 -6.96875 L 3.203125 -47.078125 L 13.578125 -47.078125 L 13.578125 -10.546875 C 13.578125 -9.597656 13.8125 -9 14.28125 -8.75 C 14.757812 -8.507812 15.203125 -8.390625 15.609375 -8.390625 L 18.203125 -8.390625 Z M 18.203125 0 "/></g></g></g><g fill="#f1f1f1" fill-opacity="1"><g transform="translate(74.227226, 74.191884)"><g><path d="M 8.578125 -37.390625 C 6.972656 -37.390625 5.59375 -37.863281 4.4375 -38.8125 C 3.289062 -39.757812 2.71875 -41.054688 2.71875 -42.703125 C 2.71875 -44.347656 3.289062 -45.648438 4.4375 -46.609375 C 5.59375 -47.578125 6.972656 -48.0625 8.578125 -48.0625 C 10.179688 -48.0625 11.554688 -47.578125 12.703125 -46.609375 C 13.859375 -45.648438 14.4375 -44.347656 14.4375 -42.703125 C 14.4375 -41.054688 13.859375 -39.757812 12.703125 -38.8125 C 11.554688 -37.863281 10.179688 -37.390625 8.578125 -37.390625 Z M 13.765625 0 L 3.390625 0 L 3.390625 -34.984375 L 13.765625 -34.984375 Z M 13.765625 0 "/></g></g></g><g fill="#f1f1f1" fill-opacity="1"><g transform="translate(91.381144, 74.191884)"><g><path d="M 13.765625 0 L 3.390625 0 L 3.390625 -34.984375 L 13.765625 -34.984375 L 13.765625 -31.21875 C 14.953125 -32.988281 16.273438 -34.179688 17.734375 -34.796875 C 19.203125 -35.410156 20.859375 -35.71875 22.703125 -35.71875 C 25.003906 -35.71875 26.90625 -35.441406 28.40625 -34.890625 C 29.914062 -34.335938 31.109375 -33.597656 31.984375 -32.671875 C 32.867188 -31.742188 33.539062 -30.742188 34 -29.671875 C 34.695312 -28.148438 35.097656 -26.628906 35.203125 -25.109375 C 35.304688 -23.585938 35.359375 -21.738281 35.359375 -19.5625 L 35.359375 0 L 24.984375 0 L 24.984375 -19.6875 C 24.984375 -21.414062 24.867188 -22.78125 24.640625 -23.78125 C 24.421875 -24.789062 24.046875 -25.5625 23.515625 -26.09375 C 22.691406 -26.957031 21.414062 -27.390625 19.6875 -27.390625 C 18.613281 -27.390625 17.6875 -27.253906 16.90625 -26.984375 C 16.125 -26.722656 15.507812 -26.265625 15.0625 -25.609375 C 14.644531 -25.035156 14.320312 -24.285156 14.09375 -23.359375 C 13.875 -22.429688 13.765625 -21.207031 13.765625 -19.6875 Z M 13.765625 0 "/></g></g></g><g fill="#f1f1f1" fill-opacity="1"><g transform="translate(129.884909, 74.191884)"><g><path d="M 13.765625 0 L 3.390625 0 L 3.390625 -47.078125 L 13.765625 -47.078125 L 13.765625 -22.703125 L 24.859375 -34.984375 L 37.640625 -34.984375 L 23.265625 -19.9375 L 38.4375 0 L 26.09375 0 L 13.765625 -16.78125 Z M 13.765625 0 "/></g></g></g><g clip-path="url(#4b16dd6177)"><path fill="#0077b6" d="M 279.398438 50.132812 L 258.054688 42.230469 L 250.082031 16.109375 C 249.777344 15.101562 248.84375 14.410156 247.789062 14.410156 C 246.738281 14.410156 245.804688 15.101562 245.496094 16.109375 L 237.527344 42.230469 L 216.179688 50.132812 C 215.238281 50.484375 214.613281 51.378906 214.613281 52.382812 C 214.613281 53.386719 215.238281 54.285156 216.179688 54.632812 L 237.515625 62.53125 L 245.488281 89.449219 C 245.792969 90.46875 246.726562 91.164062 247.789062 91.164062 C 248.851562 91.164062 249.789062 90.46875 250.089844 89.449219 L 258.0625 62.527344 L 279.402344 54.628906 C 280.339844 54.285156 280.964844 53.386719 280.964844 52.382812 C 280.964844 51.378906 280.339844 50.484375 279.398438 50.132812 Z M 279.398438 50.132812 " fill-opacity="1" fill-rule="nonzero"/></g><g clip-path="url(#813f5527cd)"><path fill="#8600ef" d="M 231.425781 76.519531 L 225.875 74.464844 L 223.714844 66.550781 C 223.433594 65.503906 222.484375 64.78125 221.40625 64.78125 C 220.324219 64.78125 219.375 65.503906 219.089844 66.546875 L 216.929688 74.464844 L 211.382812 76.515625 C 210.441406 76.863281 209.816406 77.765625 209.816406 78.765625 C 209.816406 79.769531 210.441406 80.667969 211.382812 81.015625 L 216.902344 83.0625 L 219.078125 91.75 C 219.347656 92.816406 220.304688 93.566406 221.40625 93.566406 C 222.503906 93.566406 223.460938 92.816406 223.730469 91.75 L 225.90625 83.0625 L 231.425781 81.015625 C 232.367188 80.667969 232.992188 79.769531 232.992188 78.765625 C 232.992188 77.765625 232.367188 76.863281 231.425781 76.519531 Z M 221.019531 24.558594 L 215.351562 22.460938 L 213.25 16.785156 C 212.902344 15.84375 212.003906 15.21875 211 15.21875 C 209.996094 15.21875 209.097656 15.84375 208.75 16.785156 L 206.652344 22.460938 L 200.976562 24.558594 C 200.035156 24.910156 199.410156 25.804688 199.410156 26.808594 C 199.410156 27.8125 200.035156 28.710938 200.976562 29.058594 L 206.652344 31.15625 L 208.75 36.828125 C 209.097656 37.773438 209.996094 38.394531 211 38.394531 C 212 38.394531 212.898438 37.773438 213.25 36.828125 L 215.347656 31.15625 L 221.019531 29.058594 C 221.964844 28.707031 222.585938 27.8125 222.585938 26.808594 C 222.585938 25.804688 221.964844 24.910156 221.019531 24.558594 Z M 221.019531 24.558594 " fill-opacity="1" fill-rule="nonzero"/></g><g fill="#ffffff" fill-opacity="1"><g transform="translate(168.395978, 74.191884)"><g><path d="M 20.359375 0.734375 C 16.742188 0.734375 13.546875 -0.0234375 10.765625 -1.546875 C 7.992188 -3.066406 5.832031 -5.210938 4.28125 -7.984375 C 2.738281 -10.765625 1.96875 -14.003906 1.96875 -17.703125 C 1.96875 -21.285156 2.738281 -24.421875 4.28125 -27.109375 C 5.832031 -29.804688 7.984375 -31.914062 10.734375 -33.4375 C 13.492188 -34.957031 16.703125 -35.71875 20.359375 -35.71875 C 24.023438 -35.71875 27.234375 -34.957031 29.984375 -33.4375 C 32.742188 -31.914062 34.894531 -29.804688 36.4375 -27.109375 C 37.976562 -24.421875 38.75 -21.285156 38.75 -17.703125 C 38.75 -14.003906 37.988281 -10.773438 36.46875 -8.015625 C 34.945312 -5.265625 32.804688 -3.117188 30.046875 -1.578125 C 27.296875 -0.0351562 24.066406 0.734375 20.359375 0.734375 Z M 20.359375 -8.140625 C 22.703125 -8.140625 24.550781 -9.015625 25.90625 -10.765625 C 27.269531 -12.515625 27.953125 -14.828125 27.953125 -17.703125 C 27.953125 -20.421875 27.269531 -22.632812 25.90625 -24.34375 C 24.550781 -26.050781 22.703125 -26.90625 20.359375 -26.90625 C 18.054688 -26.90625 16.195312 -26.0625 14.78125 -24.375 C 13.363281 -22.6875 12.65625 -20.460938 12.65625 -17.703125 C 12.65625 -14.785156 13.363281 -12.460938 14.78125 -10.734375 C 16.195312 -9.003906 18.054688 -8.140625 20.359375 -8.140625 Z M 20.359375 -8.140625 "/></g></g></g></svg>