<svg xmlns="http://www.w3.org/2000/svg" xmlns:xlink="http://www.w3.org/1999/xlink" width="150" zoomAndPan="magnify" viewBox="0 0 112.5 113.999999" height="152" preserveAspectRatio="xMidYMid meet" version="1.0"><defs><g/><clipPath id="60eb0fff5f"><path d="M 0 1.296875 L 112.003906 1.296875 L 112.003906 113.300781 L 0 113.300781 Z M 0 1.296875 " clip-rule="nonzero"/></clipPath><clipPath id="f2ef582bf0"><path d="M 34.347656 1.296875 L 77.65625 1.296875 C 96.625 1.296875 112.003906 16.675781 112.003906 35.644531 L 112.003906 78.953125 C 112.003906 97.921875 96.625 113.300781 77.65625 113.300781 L 34.347656 113.300781 C 15.378906 113.300781 0 97.921875 0 78.953125 L 0 35.644531 C 0 16.675781 15.378906 1.296875 34.347656 1.296875 Z M 34.347656 1.296875 " clip-rule="nonzero"/></clipPath><clipPath id="12d8d20a9d"><path d="M 19.53125 20.953125 L 92.472656 20.953125 L 92.472656 93.890625 L 19.53125 93.890625 Z M 19.53125 20.953125 " clip-rule="nonzero"/></clipPath><clipPath id="4f50b44b82"><path d="M 56 20.953125 C 35.859375 20.953125 19.53125 37.277344 19.53125 57.421875 C 19.53125 77.5625 35.859375 93.890625 56 93.890625 C 76.144531 93.890625 92.472656 77.5625 92.472656 57.421875 C 92.472656 37.277344 76.144531 20.953125 56 20.953125 Z M 56 20.953125 " clip-rule="nonzero"/></clipPath><clipPath id="e4543e776c"><path d="M 85 20.953125 L 96.339844 20.953125 L 96.339844 49.324219 L 85 49.324219 Z M 85 20.953125 " clip-rule="nonzero"/></clipPath><clipPath id="9b75739df6"><path d="M 70.207031 21 L 96.339844 21 L 96.339844 49.324219 L 70.207031 49.324219 Z M 70.207031 21 " clip-rule="nonzero"/></clipPath></defs><g clip-path="url(#60eb0fff5f)"><g clip-path="url(#f2ef582bf0)"><path fill="#ffffff" d="M 0 1.296875 L 112.003906 1.296875 L 112.003906 113.300781 L 0 113.300781 Z M 0 1.296875 " fill-opacity="1" fill-rule="nonzero"/></g></g><g clip-path="url(#12d8d20a9d)"><g clip-path="url(#4f50b44b82)"><path fill="#ffcc00" d="M 19.53125 20.953125 L 92.472656 20.953125 L 92.472656 93.890625 L 19.53125 93.890625 Z M 19.53125 20.953125 " fill-opacity="1" fill-rule="nonzero"/></g></g><g fill="#ffffff" fill-opacity="1"><g transform="translate(35.675492, 74.295531)"><g><path d="M 20.328125 0.734375 C 16.710938 0.734375 13.519531 -0.0195312 10.75 -1.53125 C 7.976562 -3.050781 5.820312 -5.195312 4.28125 -7.96875 C 2.738281 -10.738281 1.96875 -13.972656 1.96875 -17.671875 C 1.96875 -21.242188 2.738281 -24.375 4.28125 -27.0625 C 5.820312 -29.75 7.96875 -31.851562 10.71875 -33.375 C 13.46875 -34.894531 16.671875 -35.65625 20.328125 -35.65625 C 23.972656 -35.65625 27.171875 -34.894531 29.921875 -33.375 C 32.671875 -31.851562 34.816406 -29.75 36.359375 -27.0625 C 37.898438 -24.375 38.671875 -21.242188 38.671875 -17.671875 C 38.671875 -13.972656 37.910156 -10.75 36.390625 -8 C 34.867188 -5.25 32.734375 -3.101562 29.984375 -1.5625 C 27.234375 -0.03125 24.015625 0.734375 20.328125 0.734375 Z M 20.328125 -8.125 C 22.660156 -8.125 24.503906 -8.992188 25.859375 -10.734375 C 27.210938 -12.484375 27.890625 -14.796875 27.890625 -17.671875 C 27.890625 -20.378906 27.210938 -22.582031 25.859375 -24.28125 C 24.503906 -25.988281 22.660156 -26.84375 20.328125 -26.84375 C 18.023438 -26.84375 16.164062 -26 14.75 -24.3125 C 13.332031 -22.632812 12.625 -20.421875 12.625 -17.671875 C 12.625 -14.753906 13.332031 -12.429688 14.75 -10.703125 C 16.164062 -8.984375 18.023438 -8.125 20.328125 -8.125 Z M 20.328125 -8.125 "/></g></g></g><g clip-path="url(#e4543e776c)"><path fill="#ff0000" d="M 150.152344 56.628906 L 128.835938 48.738281 L 120.875 22.648438 C 120.566406 21.640625 119.636719 20.953125 118.585938 20.953125 C 117.53125 20.953125 116.601562 21.640625 116.292969 22.648438 L 108.335938 48.738281 L 87.015625 56.628906 C 86.074219 56.980469 85.449219 57.871094 85.449219 58.875 C 85.449219 59.878906 86.074219 60.777344 87.015625 61.121094 L 108.324219 69.011719 L 116.289062 95.898438 C 116.589844 96.914062 117.523438 97.609375 118.585938 97.609375 C 119.644531 97.609375 120.582031 96.914062 120.882812 95.894531 L 128.84375 69.007812 L 150.15625 61.121094 C 151.09375 60.777344 151.71875 59.878906 151.71875 58.875 C 151.71875 57.875 151.09375 56.980469 150.152344 56.628906 Z M 150.152344 56.628906 " fill-opacity="1" fill-rule="nonzero"/></g><g clip-path="url(#9b75739df6)"><path fill="#8600ef" d="M 102.242188 82.984375 L 96.699219 80.933594 L 94.542969 73.027344 C 94.257812 71.980469 93.3125 71.257812 92.234375 71.257812 C 91.152344 71.257812 90.207031 71.980469 89.921875 73.023438 L 87.765625 80.929688 L 82.222656 82.980469 C 81.28125 83.328125 80.660156 84.226562 80.660156 85.226562 C 80.660156 86.230469 81.28125 87.128906 82.222656 87.476562 L 87.738281 89.519531 L 89.910156 98.195312 C 90.175781 99.257812 91.132812 100.007812 92.234375 100.007812 C 93.332031 100.007812 94.289062 99.257812 94.558594 98.191406 L 96.730469 89.515625 L 102.242188 87.472656 C 103.183594 87.128906 103.804688 86.230469 103.804688 85.226562 C 103.804688 84.226562 103.183594 83.328125 102.242188 82.984375 Z M 91.851562 31.085938 L 86.1875 28.992188 L 84.089844 23.324219 C 83.742188 22.382812 82.84375 21.761719 81.839844 21.761719 C 80.839844 21.761719 79.945312 22.382812 79.59375 23.324219 L 77.496094 28.992188 L 71.832031 31.085938 C 70.890625 31.4375 70.269531 32.332031 70.269531 33.335938 C 70.269531 34.335938 70.890625 35.234375 71.832031 35.582031 L 77.496094 37.675781 L 79.59375 43.34375 C 79.945312 44.285156 80.839844 44.90625 81.839844 44.90625 C 82.84375 44.90625 83.738281 44.285156 84.089844 43.34375 L 86.183594 37.675781 L 91.851562 35.582031 C 92.792969 35.230469 93.414062 34.335938 93.414062 33.335938 C 93.414062 32.332031 92.792969 31.4375 91.851562 31.085938 Z M 91.851562 31.085938 " fill-opacity="1" fill-rule="nonzero"/></g></svg>