<svg xmlns="http://www.w3.org/2000/svg" xmlns:xlink="http://www.w3.org/1999/xlink" width="280" zoomAndPan="magnify" viewBox="0 0 210 231" height="308" preserveAspectRatio="xMidYMid meet" version="1.0"><defs><clipPath id="abdbcb1d6e"><path d="M 102.871094 106.734375 L 132.414062 106.734375 L 132.414062 123.578125 L 102.871094 123.578125 Z M 102.871094 106.734375 " clip-rule="nonzero"/></clipPath><clipPath id="bf8a3e4de9"><path d="M 108.75 106.988281 C 131.925781 117.789062 132.148438 118.386719 132.300781 119.136719 C 132.449219 119.886719 132.300781 120.863281 132 121.539062 C 131.625 122.210938 131.023438 122.960938 130.273438 123.261719 C 129.375 123.636719 127.648438 123.710938 126.675781 123.1875 C 125.773438 122.738281 124.875 121.238281 124.726562 120.1875 C 124.574219 119.4375 124.875 118.539062 125.324219 117.863281 C 125.699219 117.1875 126.375 116.511719 127.199219 116.289062 C 128.175781 116.0625 129.898438 116.289062 130.726562 116.738281 C 131.476562 117.1875 131.925781 118.011719 132.148438 118.761719 C 132.375 119.4375 132.375 120.414062 132.148438 121.164062 C 131.851562 121.914062 131.324219 122.664062 130.648438 123.113281 C 129.75 123.5625 128.699219 123.636719 127.050781 123.414062 C 122.851562 122.8125 108.898438 116.960938 105.449219 114.789062 C 104.25 113.960938 103.726562 113.511719 103.351562 112.6875 C 102.898438 111.863281 102.75 110.664062 103.050781 109.761719 C 103.425781 108.710938 104.699219 107.289062 105.75 106.914062 C 106.648438 106.539062 108.75 106.988281 108.75 106.988281 " clip-rule="nonzero"/></clipPath><clipPath id="0e0b1fddaa"><path d="M 43 151 L 167 151 L 167 230.25 L 43 230.25 Z M 43 151 " clip-rule="nonzero"/></clipPath></defs><g clip-path="url(#abdbcb1d6e)"><g clip-path="url(#bf8a3e4de9)"><path fill="#e7191f" d="M 100.050781 103.914062 L 135.324219 103.914062 L 135.324219 126.488281 L 100.050781 126.488281 Z M 100.050781 103.914062 " fill-opacity="1" fill-rule="nonzero"/></g></g><path fill="#f2546b" d="M 0.0585938 104.878906 C 0.0585938 162.785156 47.054688 209.722656 105.03125 209.722656 C 163.007812 209.722656 210.003906 162.785156 210.003906 104.878906 C 210.003906 46.972656 163.007812 0.0351562 105.03125 0.0351562 C 47.054688 0.03125 0.0585938 46.972656 0.0585938 104.878906 " fill-opacity="1" fill-rule="nonzero"/><path fill="#845232" d="M 142.703125 184.148438 L 69.367188 184.148438 L 69.367188 77.519531 L 142.703125 77.519531 L 142.703125 184.148438 " fill-opacity="1" fill-rule="nonzero"/><g clip-path="url(#0e0b1fddaa)"><path fill="#ffffff" d="M 166.277344 210.007812 C 161.085938 213.878906 155.511719 217.273438 149.621094 220.109375 C 148.726562 220.542969 147.832031 220.957031 146.921875 221.363281 C 134.136719 227.09375 119.957031 230.277344 105.035156 230.277344 C 90.109375 230.277344 75.9375 227.09375 63.152344 221.363281 C 62.234375 220.957031 61.332031 220.542969 60.445312 220.109375 C 54.554688 217.265625 48.980469 213.878906 43.792969 210.007812 C 44.703125 189.742188 55.484375 172.035156 71.453125 161.582031 C 81.097656 155.261719 92.632812 151.589844 105.035156 151.589844 C 106.925781 151.589844 108.796875 151.675781 110.632812 151.84375 C 120.90625 152.769531 130.4375 156.222656 138.613281 161.582031 C 145.964844 166.394531 152.214844 172.746094 156.90625 180.167969 C 162.414062 188.878906 165.777344 199.074219 166.277344 210.007812 " fill-opacity="1" fill-rule="nonzero"/></g><path fill="#fbd5c0" d="M 138.613281 161.582031 C 137.679688 168.652344 134.558594 175.039062 129.9375 180.035156 C 123.75 186.730469 114.886719 190.929688 105.035156 190.929688 C 89.253906 190.929688 75.992188 180.148438 72.226562 165.554688 C 71.894531 164.257812 71.632812 162.929688 71.453125 161.582031 C 81.097656 155.261719 92.632812 151.589844 105.035156 151.589844 C 106.925781 151.589844 108.796875 151.667969 110.640625 151.84375 C 110.960938 151.867188 111.28125 151.902344 111.597656 151.9375 C 111.796875 151.957031 112 151.976562 112.191406 152.003906 C 112.414062 152.023438 112.632812 152.054688 112.847656 152.082031 C 112.980469 152.097656 113.121094 152.117188 113.253906 152.136719 C 113.449219 152.15625 113.648438 152.1875 113.851562 152.214844 C 114.003906 152.234375 114.15625 152.261719 114.316406 152.28125 C 114.453125 152.304688 114.585938 152.324219 114.71875 152.347656 C 114.945312 152.382812 115.167969 152.421875 115.394531 152.457031 C 116.371094 152.625 117.339844 152.808594 118.292969 153.023438 L 118.9375 153.164062 C 119.054688 153.199219 119.183594 153.222656 119.304688 153.257812 C 119.53125 153.3125 119.765625 153.363281 119.984375 153.425781 C 120.027344 153.429688 120.058594 153.4375 120.085938 153.445312 C 120.375 153.519531 120.660156 153.589844 120.941406 153.671875 C 121.25 153.746094 121.550781 153.832031 121.84375 153.917969 C 122.183594 154.011719 122.519531 154.113281 122.859375 154.210938 C 123.121094 154.292969 123.382812 154.371094 123.640625 154.460938 C 123.808594 154.511719 123.984375 154.566406 124.144531 154.621094 C 124.417969 154.707031 124.691406 154.800781 124.957031 154.894531 C 125.292969 155.007812 125.621094 155.121094 125.949219 155.238281 C 125.972656 155.253906 125.996094 155.261719 126.015625 155.265625 C 126.355469 155.386719 126.691406 155.515625 127.023438 155.640625 C 127.269531 155.742188 127.523438 155.835938 127.777344 155.941406 C 128.441406 156.203125 129.089844 156.476562 129.730469 156.753906 L 130.574219 157.136719 C 130.828125 157.25 131.082031 157.371094 131.335938 157.488281 C 131.570312 157.601562 131.796875 157.710938 132.023438 157.824219 C 132.238281 157.925781 132.445312 158.03125 132.652344 158.136719 C 132.785156 158.203125 132.925781 158.269531 133.058594 158.34375 C 133.613281 158.625 134.15625 158.917969 134.691406 159.210938 C 134.882812 159.320312 135.085938 159.433594 135.273438 159.539062 C 135.398438 159.613281 135.519531 159.679688 135.640625 159.746094 L 136.09375 160.011719 L 136.554688 160.292969 L 136.855469 160.472656 C 137.144531 160.640625 137.425781 160.816406 137.703125 160.996094 C 138.011719 161.1875 138.3125 161.382812 138.613281 161.582031 " fill-opacity="1" fill-rule="nonzero"/><path fill="#fbd5c0" d="M 116.835938 137.871094 L 116.835938 161.0625 C 116.835938 166.929688 112.03125 171.734375 106.164062 171.734375 L 103.902344 171.734375 C 98.035156 171.734375 93.234375 166.929688 93.234375 161.0625 L 93.234375 137.871094 C 93.234375 132 98.035156 127.203125 103.902344 127.203125 L 106.164062 127.203125 C 112.03125 127.203125 116.835938 132 116.835938 137.871094 " fill-opacity="1" fill-rule="nonzero"/><path fill="#f8a29e" d="M 116.835938 137.871094 L 116.835938 150.140625 C 113.328125 152.089844 109.605469 153.222656 105.828125 153.222656 C 101.371094 153.222656 97.121094 151.980469 93.234375 149.824219 L 93.234375 137.871094 C 93.234375 132 98.035156 127.203125 103.902344 127.203125 L 106.164062 127.203125 C 112.03125 127.203125 116.835938 132 116.835938 137.871094 " fill-opacity="1" fill-rule="nonzero"/><path fill="#fbd5c0" d="M 141.429688 123.488281 C 141.429688 123.488281 148.417969 121.113281 152.882812 113.328125 C 157.738281 104.878906 154.6875 99.609375 153.726562 98.46875 C 151.101562 95.351562 147.042969 97.355469 146.375 98.46875 C 145.707031 99.582031 136.027344 117.140625 141.429688 123.488281 " fill-opacity="1" fill-rule="nonzero"/><path fill="#f8a29e" d="M 148.277344 101.238281 C 148.277344 101.238281 152.71875 101.808594 151.160156 108.035156 C 149.597656 114.269531 145.5 116.734375 139.925781 119.917969 C 134.355469 123.101562 142.710938 102.507812 148.277344 101.238281 " fill-opacity="1" fill-rule="nonzero"/><path fill="#fbd5c0" d="M 70.457031 123.488281 C 70.457031 123.488281 63.464844 121.113281 59 113.328125 C 54.140625 104.878906 57.1875 99.609375 58.152344 98.46875 C 60.777344 95.351562 64.835938 97.355469 65.503906 98.46875 C 66.171875 99.582031 75.859375 117.140625 70.457031 123.488281 " fill-opacity="1" fill-rule="nonzero"/><path fill="#f8a29e" d="M 63.597656 101.238281 C 63.597656 101.238281 59.167969 101.808594 60.726562 108.035156 C 62.28125 114.269531 66.386719 116.734375 71.953125 119.917969 C 77.527344 123.101562 69.171875 102.507812 63.597656 101.238281 " fill-opacity="1" fill-rule="nonzero"/><path fill="#fbd5c0" d="M 148.277344 97.125 C 148.277344 71.539062 129.371094 50.789062 106.035156 50.789062 C 82.707031 50.789062 63.785156 71.539062 63.785156 97.125 C 63.785156 122.714844 82.707031 149.464844 106.035156 149.464844 C 127.960938 149.464844 148.277344 122.5 148.277344 97.125 " fill-opacity="1" fill-rule="nonzero"/><path fill="#845232" d="M 86.585938 66.984375 C 86.585938 66.984375 100.402344 108.375 151.488281 131.820312 C 151.488281 131.820312 152.898438 93.910156 151.132812 77.519531 C 149.140625 59.046875 131.757812 37.726562 105.039062 43.285156 C 105.039062 43.285156 80.34375 50.742188 86.585938 66.984375 " fill-opacity="1" fill-rule="nonzero"/><path fill="#845232" d="M 111.175781 50.789062 C 111.175781 50.789062 112.285156 45.957031 108.273438 42.171875 C 104.265625 38.386719 51.167969 46.15625 63.785156 97.125 C 63.785156 97.125 76.164062 66.644531 108.945312 63.976562 L 111.175781 50.789062 " fill-opacity="1" fill-rule="nonzero"/></svg>