<svg width="3345" height="907" viewBox="0 0 3345 907" fill="none" xmlns="http://www.w3.org/2000/svg">
<path d="M3007.87 731.844C2973.04 693.074 2955.62 639.413 2955.62 570.862C2955.62 502.311 2973.04 448.651 3007.87 409.88C3043.27 371.11 3090.75 351.724 3150.31 351.724C3209.87 351.724 3257.07 371.11 3291.91 409.88C3326.75 448.651 3344.16 502.311 3344.16 570.862C3344.16 639.413 3326.75 693.074 3291.91 731.844C3257.07 770.615 3209.87 790 3150.31 790C3090.75 790 3043.27 770.615 3007.87 731.844ZM3150.31 492.478C3118.85 492.478 3103.11 518.325 3103.11 570.019C3103.11 621.713 3118.85 647.56 3150.31 647.56C3182.34 647.56 3198.35 621.713 3198.35 570.019C3198.35 518.325 3182.34 492.478 3150.31 492.478Z" fill="white"/>
<path d="M2545.27 198.328C2545.27 189.337 2570.84 184.842 2621.97 184.842C2669.73 186.528 2693.61 190.18 2693.61 195.799V519.449L2777.05 365.21C2780.99 356.781 2804.87 352.567 2848.69 352.567C2892.52 352.567 2920.62 355.377 2932.98 360.995L2823.41 539.677L2949.83 776.515C2950.96 778.762 2940.28 780.448 2917.81 781.572C2895.89 783.257 2877.63 784.1 2863.02 784.1C2809.08 784.1 2780.14 781.572 2776.21 776.515L2692.77 589.404V775.672C2692.77 782.976 2668.05 786.629 2618.6 786.629C2569.71 786.629 2545.27 783.257 2545.27 776.515V198.328Z" fill="white"/>
<path d="M2257.21 776.515C2257.21 780.448 2236.98 782.414 2196.52 782.414C2140.33 780.729 2112.24 777.638 2112.24 773.143V500.064H2090.32C2075.72 500.064 2066.16 487.702 2061.67 462.979C2060.54 455.674 2059.98 448.37 2059.98 441.065C2059.98 423.646 2063.35 406.228 2070.1 388.809C2080.21 364.086 2095.94 351.724 2117.3 351.724C2138.65 351.724 2157.75 356.781 2174.61 366.895C2191.47 377.009 2202.7 387.123 2208.32 397.238C2243.72 366.895 2285.86 351.724 2334.75 351.724C2383.63 351.724 2419.03 364.929 2440.95 391.338C2462.86 417.747 2473.82 461.012 2473.82 521.135V773.986C2473.82 780.729 2449.65 784.1 2401.33 784.1C2353.57 784.1 2329.69 780.729 2329.69 773.986V530.406C2329.69 502.311 2319.86 488.264 2300.19 488.264C2294.57 488.264 2286.71 490.793 2276.59 495.85C2266.48 500.345 2260.02 503.716 2257.21 505.964V776.515Z" fill="white"/>
<path d="M2004.83 776.515C2004.83 781.01 1978.98 783.258 1927.29 783.258C1876.16 783.258 1850.59 781.291 1850.59 777.358V363.525C1850.59 359.591 1876.16 357.625 1927.29 357.625C1978.98 357.625 2004.83 359.31 2004.83 362.682V776.515ZM2004.83 312.954C2004.83 316.887 1978.98 318.854 1927.29 318.854C1876.16 318.854 1850.59 317.168 1850.59 313.797V192.428C1850.59 186.809 1876.16 184 1927.29 184C1978.98 184 2004.83 185.686 2004.83 189.057V312.954Z" fill="white"/>
<path d="M1774.35 774.829C1774.35 779.886 1745.69 782.415 1688.38 782.415C1643.42 781.853 1620.95 779.605 1620.95 775.672V201.699C1620.95 193.271 1648.2 189.057 1702.7 189.057C1750.47 190.742 1774.35 193.552 1774.35 197.485V774.829Z" fill="white"/>
<path d="M1538.56 344.139C1538.56 402.576 1513.28 446.965 1462.71 477.307C1490.24 487.421 1513.28 504.84 1531.82 529.563C1550.36 554.287 1559.63 589.405 1559.63 634.918C1559.63 679.869 1542.78 715.55 1509.06 741.959C1475.91 768.368 1428.15 781.572 1365.78 781.572H1166.87C1157.32 781.572 1149.45 778.482 1143.27 772.301C1137.09 765.558 1134 756.849 1134 746.173V206.756C1134 200.576 1134.84 196.642 1136.53 194.957C1138.78 192.709 1142.99 191.585 1149.17 191.585H1341.34C1472.82 191.585 1538.56 242.437 1538.56 344.139ZM1295.82 328.125V438.537H1300.04C1353.98 438.537 1380.95 420.556 1380.95 384.595C1380.95 364.929 1375.61 350.601 1364.94 341.611C1354.82 332.62 1337.69 328.125 1313.52 328.125H1295.82ZM1295.82 537.992V647.561H1311C1335.16 647.561 1352.86 643.066 1364.09 634.075C1375.33 625.085 1380.95 610.757 1380.95 591.091C1380.95 571.424 1375.61 557.658 1364.94 549.792C1354.82 541.925 1337.69 537.992 1313.52 537.992H1295.82Z" fill="white"/>
<g clip-path="url(#clip0_6_652)">
<rect width="904" height="907" rx="267" fill="url(#paint0_linear_6_652)"/>
<g style="mix-blend-mode:overlay">
<line x1="17.4026" y1="-3069" x2="17.4026" y2="3881" stroke="white" stroke-opacity="0.2"/>
<line x1="50.2617" y1="-3069" x2="50.2617" y2="3881" stroke="white" stroke-opacity="0.2"/>
<line x1="83.1208" y1="-3069" x2="83.1208" y2="3881" stroke="white" stroke-opacity="0.2"/>
<line x1="115.98" y1="-3069" x2="115.98" y2="3881" stroke="white" stroke-opacity="0.2"/>
<line x1="148.839" y1="-3069" x2="148.839" y2="3881" stroke="white" stroke-opacity="0.2"/>
<line x1="181.698" y1="-3069" x2="181.698" y2="3881" stroke="white" stroke-opacity="0.2"/>
<line x1="214.557" y1="-3069" x2="214.557" y2="3881" stroke="white" stroke-opacity="0.2"/>
<line x1="247.417" y1="-3069" x2="247.417" y2="3881" stroke="white" stroke-opacity="0.2"/>
<line x1="280.276" y1="-3069" x2="280.276" y2="3881" stroke="white" stroke-opacity="0.2"/>
<line x1="313.135" y1="-3069" x2="313.135" y2="3881" stroke="white" stroke-opacity="0.2"/>
<line x1="345.994" y1="-3069" x2="345.994" y2="3881" stroke="white" stroke-opacity="0.2"/>
<line x1="378.853" y1="-3069" x2="378.853" y2="3881" stroke="white" stroke-opacity="0.2"/>
<line x1="411.712" y1="-3069" x2="411.712" y2="3881" stroke="white" stroke-opacity="0.2"/>
<line x1="444.571" y1="-3069" x2="444.571" y2="3881" stroke="white" stroke-opacity="0.2"/>
<line x1="477.43" y1="-3069" x2="477.43" y2="3881" stroke="white" stroke-opacity="0.2"/>
<line x1="510.289" y1="-3069" x2="510.289" y2="3881" stroke="white" stroke-opacity="0.2"/>
<line x1="543.149" y1="-3069" x2="543.149" y2="3881" stroke="white" stroke-opacity="0.2"/>
<line x1="576.008" y1="-3069" x2="576.008" y2="3881" stroke="white" stroke-opacity="0.2"/>
<line x1="608.867" y1="-3069" x2="608.867" y2="3881" stroke="white" stroke-opacity="0.2"/>
<line x1="641.726" y1="-3069" x2="641.726" y2="3881" stroke="white" stroke-opacity="0.2"/>
<line x1="674.585" y1="-3069" x2="674.585" y2="3881" stroke="white" stroke-opacity="0.2"/>
<line x1="707.444" y1="-3069" x2="707.444" y2="3881" stroke="white" stroke-opacity="0.2"/>
<line x1="740.304" y1="-3069" x2="740.304" y2="3881" stroke="white" stroke-opacity="0.2"/>
<line x1="773.163" y1="-3069" x2="773.163" y2="3881" stroke="white" stroke-opacity="0.2"/>
<line x1="806.022" y1="-3069" x2="806.022" y2="3881" stroke="white" stroke-opacity="0.2"/>
<line x1="838.881" y1="-3069" x2="838.881" y2="3881" stroke="white" stroke-opacity="0.2"/>
<line x1="871.74" y1="-3069" x2="871.74" y2="3881" stroke="white" stroke-opacity="0.2"/>
<line x1="1626.96" y1="11.5" x2="-15.9948" y2="11.4999" stroke="white" stroke-opacity="0.2"/>
<line x1="1626.96" y1="39.5" x2="-15.9948" y2="39.4999" stroke="white" stroke-opacity="0.2"/>
<line x1="1626.96" y1="67.5" x2="-15.9946" y2="67.4999" stroke="white" stroke-opacity="0.2"/>
<line x1="1626.96" y1="95.5" x2="-15.9945" y2="95.4999" stroke="white" stroke-opacity="0.2"/>
<line x1="1626.96" y1="123.5" x2="-15.9945" y2="123.5" stroke="white" stroke-opacity="0.2"/>
<line x1="1626.96" y1="151.5" x2="-15.9944" y2="151.5" stroke="white" stroke-opacity="0.2"/>
<line x1="1626.96" y1="179.5" x2="-15.9944" y2="179.5" stroke="white" stroke-opacity="0.2"/>
<line x1="1626.96" y1="207.5" x2="-15.9941" y2="207.5" stroke="white" stroke-opacity="0.2"/>
<line x1="1626.96" y1="235.5" x2="-15.9941" y2="235.5" stroke="white" stroke-opacity="0.2"/>
<line x1="1626.96" y1="263.5" x2="-15.994" y2="263.5" stroke="white" stroke-opacity="0.2"/>
<line x1="1626.96" y1="291.5" x2="-15.994" y2="291.5" stroke="white" stroke-opacity="0.2"/>
<line x1="1626.96" y1="319.5" x2="-15.9939" y2="319.5" stroke="white" stroke-opacity="0.2"/>
<line x1="1626.96" y1="347.5" x2="-15.9939" y2="347.5" stroke="white" stroke-opacity="0.2"/>
<line x1="1626.96" y1="375.5" x2="-15.9937" y2="375.5" stroke="white" stroke-opacity="0.2"/>
<line x1="1626.96" y1="403.5" x2="-15.9937" y2="403.5" stroke="white" stroke-opacity="0.2"/>
<line x1="1626.96" y1="431.5" x2="-15.9935" y2="431.5" stroke="white" stroke-opacity="0.2"/>
<line x1="1626.96" y1="459.5" x2="-15.9935" y2="459.5" stroke="white" stroke-opacity="0.2"/>
<line x1="1626.96" y1="487.5" x2="-15.9935" y2="487.5" stroke="white" stroke-opacity="0.2"/>
<line x1="1626.96" y1="515.5" x2="-15.9933" y2="515.5" stroke="white" stroke-opacity="0.2"/>
<line x1="1626.96" y1="543.5" x2="-15.9933" y2="543.5" stroke="white" stroke-opacity="0.2"/>
<line x1="1626.96" y1="571.5" x2="-15.9933" y2="571.5" stroke="white" stroke-opacity="0.2"/>
<line x1="1626.96" y1="599.5" x2="-15.9932" y2="599.5" stroke="white" stroke-opacity="0.2"/>
<line x1="1626.96" y1="627.5" x2="-15.9932" y2="627.5" stroke="white" stroke-opacity="0.2"/>
<line x1="1626.96" y1="655.5" x2="-15.993" y2="655.5" stroke="white" stroke-opacity="0.2"/>
<line x1="1626.96" y1="683.5" x2="-15.993" y2="683.5" stroke="white" stroke-opacity="0.2"/>
<line x1="1626.96" y1="711.5" x2="-15.9928" y2="711.5" stroke="white" stroke-opacity="0.2"/>
<line x1="1626.96" y1="739.5" x2="-15.9928" y2="739.5" stroke="white" stroke-opacity="0.2"/>
<line x1="1626.96" y1="767.5" x2="-15.9927" y2="767.5" stroke="white" stroke-opacity="0.2"/>
<line x1="1626.96" y1="795.5" x2="-15.9927" y2="795.5" stroke="white" stroke-opacity="0.2"/>
<line x1="1626.96" y1="823.5" x2="-15.9926" y2="823.5" stroke="white" stroke-opacity="0.2"/>
<line x1="1626.96" y1="851.5" x2="-15.9926" y2="851.5" stroke="white" stroke-opacity="0.2"/>
<line x1="1626.96" y1="879.5" x2="-15.9922" y2="879.5" stroke="white" stroke-opacity="0.2"/>
<line x1="1626.96" y1="907.5" x2="-15.9922" y2="907.5" stroke="white" stroke-opacity="0.2"/>
</g>
<circle cx="473" cy="475.521" r="273" fill="url(#paint1_linear_6_652)"/>
<path d="M130.206 211.647C118.176 217.707 116.142 238.177 116.763 250.932C116.98 255.386 119.812 259.214 123.96 260.852C147.92 270.313 180.186 271.787 189.979 272.481C198.787 273.105 198.339 268.454 197.493 263.88C197.148 262.011 196.198 260.289 194.776 259.027L146.568 216.269C141.954 212.178 135.713 208.873 130.206 211.647Z" fill="white" stroke="black"/>
<path d="M239.971 104.544C227.123 98.3585 213.891 111.481 205.949 121.767C203.257 125.255 202.693 129.871 204.138 134.034C214.064 162.641 231.012 210.106 238.132 217.728C244.69 224.748 256.672 217.372 262.238 212.037C263.803 210.537 264.283 208.316 263.899 206.182L247.962 117.644C247.008 112.341 244.826 106.881 239.971 104.544Z" fill="white" stroke="black"/>
<circle opacity="0.37" cx="310.5" cy="399.021" r="61.5" fill="#FF2E3C"/>
<circle opacity="0.37" cx="485.5" cy="405.021" r="67.5" fill="#FF2E3C"/>
<g filter="url(#filter0_b_6_652)">
<circle cx="456" cy="498.521" r="273" fill="url(#paint2_linear_6_652)"/>
<circle cx="456" cy="498.521" r="272" stroke="url(#paint3_linear_6_652)" stroke-width="2"/>
</g>
<path d="M499.623 313.415L437.25 341.459C436.424 341.83 435.667 342.35 435.085 343.043C427.406 352.185 430.293 364.291 433.412 370.57C434.06 371.874 435.224 372.817 436.572 373.368L499.143 398.945C501.52 399.916 504.237 399.508 506.224 397.883L506.665 397.523C511.307 393.724 514 388.042 514 382.043V380.486C514 377.274 511.814 374.474 508.698 373.695L488 368.521L468.351 364.1C468.117 364.047 467.888 363.975 467.667 363.885C465.04 362.812 464.148 359.536 465.87 357.28L467.997 354.491C468.97 353.216 470.35 352.314 471.907 351.936L487.448 348.155C487.815 348.066 488.189 348.006 488.566 347.977L498.28 347.23C507.822 346.496 516.598 339.872 514.955 330.444C513.297 320.925 507.954 312.77 501.458 312.937C500.82 312.953 500.205 313.154 499.623 313.415Z" fill="black" stroke="black"/>
<ellipse cx="332.491" cy="347.257" rx="28" ry="33.5" transform="rotate(2.60014 332.491 347.257)" fill="black"/>
</g>
<defs>
<filter id="filter0_b_6_652" x="130.7" y="173.221" width="650.6" height="650.6" filterUnits="userSpaceOnUse" color-interpolation-filters="sRGB">
<feFlood flood-opacity="0" result="BackgroundImageFix"/>
<feGaussianBlur in="BackgroundImageFix" stdDeviation="26.15"/>
<feComposite in2="SourceAlpha" operator="in" result="effect1_backgroundBlur_6_652"/>
<feBlend mode="normal" in="SourceGraphic" in2="effect1_backgroundBlur_6_652" result="shape"/>
</filter>
<linearGradient id="paint0_linear_6_652" x1="60.914" y1="42.9585" x2="804.351" y2="881.526" gradientUnits="userSpaceOnUse">
<stop/>
<stop offset="1" stop-color="#20171B" stop-opacity="0.9"/>
</linearGradient>
<linearGradient id="paint1_linear_6_652" x1="473.041" y1="770.505" x2="473.041" y2="227.356" gradientUnits="userSpaceOnUse">
<stop stop-color="#FFD000"/>
<stop offset="0.52" stop-color="#FFCA40"/>
<stop offset="1" stop-color="#FFE0F9"/>
</linearGradient>
<linearGradient id="paint2_linear_6_652" x1="213.825" y1="740.696" x2="698.175" y2="256.346" gradientUnits="userSpaceOnUse">
<stop stop-color="white" stop-opacity="0.2"/>
<stop offset="1" stop-color="white" stop-opacity="0.49"/>
</linearGradient>
<linearGradient id="paint3_linear_6_652" x1="221.541" y1="268.463" x2="677.946" y2="756.465" gradientUnits="userSpaceOnUse">
<stop stop-color="white"/>
<stop offset="1" stop-color="white" stop-opacity="0"/>
</linearGradient>
<clipPath id="clip0_6_652">
<rect width="904" height="907" rx="267" fill="white"/>
</clipPath>
</defs>
</svg>
